<svg xmlns="http://www.w3.org/2000/svg" width="411.474" height="428.133" viewBox="0 0 411.474 428.133" role="img" aria-label="Acquire Digital icon"><g transform="translate(-277.34 -215.72)"><path d="M4.53,233.348l.22-.22H-141.528a26,26,0,0,1-26-26V-134.653a26,26,0,0,1,26-26H217.945a26,26,0,0,1,26,26V207.128a26,26,0,0,1-26,26H72.575l.22.22L38.662,267.48Z" transform="translate(444.868 376.373)" fill="#c10f1b"/><path d="M313.279,22H233.167L162,197.527h37.068l12.846-33.6H249.1v33.6h64.6c42.282,0,76.484-34.594,76.484-87.011C390.186,57.863,355.775,22,313.279,22Zm-89.5,111.075L240.82,88.693c3.461-9.1,7.534-22.3,8.283-24.09v68.472ZM313.7,164.932H278.637V54.593h34.641c25.067,0,46.323,21.818,46.323,55.923S338.345,164.932,313.7,164.932Z" transform="translate(206.638 293.427)" fill="#fff"/></g></svg>
