<svg xmlns="http://www.w3.org/2000/svg" viewBox="0 0 256 256" role="img" aria-label="Acquire Cloudflare Cache Manager icon">
  <defs>
    <linearGradient id="g" x1="0" x2="1" y1="0" y2="1">
      <stop offset="0" stop-color="#f97316"/>
      <stop offset="1" stop-color="#2563eb"/>
    </linearGradient>
  </defs>
  <rect width="256" height="256" rx="52" fill="#0f172a"/>
  <path d="M86 166h100c22 0 40-16 40-38 0-20-15-36-35-38-8-28-34-48-64-48-34 0-62 25-67 58-21 4-36 21-36 43 0 24 19 43 43 43h19" fill="none" stroke="url(#g)" stroke-width="18" stroke-linecap="round" stroke-linejoin="round"/>
  <path d="M92 116h72m0 0-24-24m24 24-24 24" fill="none" stroke="#ffffff" stroke-width="16" stroke-linecap="round" stroke-linejoin="round"/>
  <path d="M74 202h108" stroke="#38bdf8" stroke-width="14" stroke-linecap="round"/>
</svg>
